<svg width="36" height="36" viewBox="0 0 36 36" fill="none" xmlns="http://www.w3.org/2000/svg">
<path d="M6.64711 22.3673C7.37852 17.9789 7.74422 15.7847 9.19801 14.4021C9.3646 14.2437 9.54016 14.095 9.72381 13.9567C11.3265 12.75 13.551 12.75 18 12.75V12.75C22.449 12.75 24.6735 12.75 26.2762 13.9567C26.4598 14.095 26.6354 14.2437 26.802 14.4021C28.2558 15.7847 28.6215 17.9789 29.3529 22.3673L30.1678 27.2568C30.4381 28.8784 30.5732 29.6891 30.1238 30.2196C29.6745 30.75 28.8525 30.75 27.2086 30.75H8.79138C7.14747 30.75 6.32551 30.75 5.87616 30.2196C5.42681 29.6891 5.56194 28.8784 5.8322 27.2568L6.64711 22.3673Z" stroke="#E1DED9" stroke-width="1.5"/>
<path d="M12.75 16.5L12.75 11.25C12.75 8.3505 15.1005 6 18 6V6C20.8995 6 23.25 8.3505 23.25 11.25L23.25 16.5" stroke="#333333" stroke-width="1.5" stroke-linecap="round"/>
</svg>
