<svg width="20" height="20" viewBox="0 0 20 20" fill="none" xmlns="http://www.w3.org/2000/svg">
<path d="M3.69268 12.4263C3.74446 12.1157 3.77035 11.9603 3.7994 11.8249C4.37103 9.16025 6.66666 7.21555 9.38901 7.08977C9.5274 7.08337 9.68488 7.08337 9.99984 7.08337V7.08337C10.3148 7.08337 10.4723 7.08337 10.6107 7.08977C13.333 7.21555 15.6287 9.16025 16.2003 11.8249C16.2293 11.9603 16.2552 12.1157 16.307 12.4263L16.6526 14.4997C16.7803 15.2659 16.8441 15.649 16.7655 15.9557C16.6514 16.4011 16.3392 16.7696 15.9186 16.9555C15.629 17.0834 15.2407 17.0834 14.4639 17.0834H5.53579C4.75902 17.0834 4.37064 17.0834 4.08108 16.9555C3.66043 16.7696 3.34827 16.4011 3.23413 15.9557C3.15556 15.649 3.21941 15.2659 3.34711 14.4997L3.69268 12.4263Z" stroke="#E1DED9" stroke-width="1.5"/>
<path d="M7.0835 9.16663L7.0835 6.24996C7.0835 4.63913 8.38933 3.33329 10.0002 3.33329V3.33329C11.611 3.33329 12.9168 4.63913 12.9168 6.24996L12.9168 9.16663" stroke="#333333" stroke-width="1.5" stroke-linecap="round"/>
</svg>
