<svg width="21" height="18" viewBox="0 0 21 18" fill="none" xmlns="http://www.w3.org/2000/svg">
<g clip-path="url(#clip0_310_4213)">
<g clip-path="url(#clip1_310_4213)">
<g clip-path="url(#clip2_310_4213)">
<path d="M8.95054 17.2498C7.68035 17.2498 6.52974 17.0102 5.49547 16.5343C4.46122 16.0552 3.57564 15.4207 2.83549 14.6304C2.09535 13.8403 1.52005 12.935 1.11604 11.9178C0.705573 10.8974 0.501953 9.85532 0.501953 8.7883C0.501953 7.67774 0.718501 6.61072 1.14836 5.59348C1.57823 4.57625 2.17292 3.6741 2.92923 2.89017C3.68553 2.10624 4.58403 1.48407 5.62799 1.02367C6.67195 0.563268 7.79994 0.329956 9.02165 0.329956C10.2757 0.329956 11.4198 0.575711 12.4509 1.07033C13.4851 1.56496 14.3674 2.2089 15.1011 3.00839C15.8349 3.80786 16.4037 4.71623 16.8109 5.73346C17.2182 6.75071 17.4218 7.78661 17.4218 8.83497C17.4218 9.94864 17.2085 11.0094 16.7883 12.0205C16.3649 13.0315 15.7798 13.9243 15.0301 14.6989C14.2834 15.4734 13.3849 16.0925 12.3442 16.556C11.3002 17.0195 10.1723 17.2498 8.95054 17.2498ZM3.92147 8.7883C3.92147 9.51002 4.03459 10.2068 4.26407 10.8788C4.49355 11.5538 4.82322 12.148 5.25308 12.6644C5.68617 13.1808 6.213 13.5977 6.84001 13.9087C7.46703 14.2229 8.17809 14.3785 8.9764 14.3785C9.79089 14.3785 10.5116 14.2198 11.1386 13.8963C11.7657 13.5759 12.2957 13.1466 12.7256 12.6146C13.1555 12.0827 13.4819 11.4823 13.7017 10.8166C13.9215 10.1509 14.0314 9.47269 14.0314 8.7852C14.0314 8.06348 13.915 7.36666 13.679 6.69472C13.4431 6.02278 13.107 5.4255 12.6771 4.9091C12.244 4.39271 11.7172 3.98207 11.0902 3.6741C10.4631 3.36613 9.75856 3.2168 8.97963 3.2168C8.16516 3.2168 7.44118 3.37857 6.80769 3.69899C6.17421 4.01941 5.64415 4.44247 5.22075 4.96821C4.79735 5.49394 4.47738 6.0881 4.2576 6.75383C4.03135 7.42264 3.92147 8.10081 3.92147 8.7883Z" fill="#333333"/>
<path d="M17.9727 16.1417V12.8353H20.4979V16.1417H17.9727Z" fill="#333333"/>
</g>
</g>
</g>
<defs>
<clipPath id="clip0_310_4213">
<rect width="20" height="17.33" fill="white" transform="translate(0.5 0.329956)"/>
</clipPath>
<clipPath id="clip1_310_4213">
<rect width="20" height="17.33" fill="white" transform="translate(0.5 0.329956)"/>
</clipPath>
<clipPath id="clip2_310_4213">
<rect width="19.9962" height="17.33" fill="white" transform="translate(0.501953 0.329956)"/>
</clipPath>
</defs>
</svg>
