<svg width="20" height="20" viewBox="0 0 20 20" fill="none" xmlns="http://www.w3.org/2000/svg">
<g clip-path="url(#clip0_318_3941)">
<path fill-rule="evenodd" clip-rule="evenodd" d="M9.99973 6.87485C10.1655 6.87485 10.3245 6.9407 10.4417 7.05791C10.5589 7.17512 10.6247 7.33409 10.6247 7.49985V9.37485H12.4997C12.6655 9.37485 12.8245 9.4407 12.9417 9.55791C13.0589 9.67512 13.1247 9.83409 13.1247 9.99985C13.1247 10.1656 13.0589 10.3246 12.9417 10.4418C12.8245 10.559 12.6655 10.6248 12.4997 10.6248H10.6247V12.4998C10.6247 12.6656 10.5589 12.8246 10.4417 12.9418C10.3245 13.059 10.1655 13.1248 9.99973 13.1248C9.83397 13.1248 9.67499 13.059 9.55778 12.9418C9.44057 12.8246 9.37473 12.6656 9.37473 12.4998V10.6248H7.49973C7.33397 10.6248 7.17499 10.559 7.05778 10.4418C6.94057 10.3246 6.87473 10.1656 6.87473 9.99985C6.87473 9.83409 6.94057 9.67512 7.05778 9.55791C7.17499 9.4407 7.33397 9.37485 7.49973 9.37485H9.37473V7.49985C9.37473 7.33409 9.44057 7.17512 9.55778 7.05791C9.67499 6.9407 9.83397 6.87485 9.99973 6.87485Z" fill="#212529"/>
<path d="M12.841 3.1411L11.6897 1.9611L12.5835 1.0886L13.361 1.88485L14.4735 1.8711C14.955 1.8654 15.4329 1.95605 15.8789 2.13771C16.3249 2.31937 16.7301 2.58838 17.0707 2.92892C17.4112 3.26946 17.6802 3.67466 17.8619 4.12068C18.0435 4.56669 18.1342 5.04454 18.1285 5.5261L18.116 6.6386L18.911 7.4161C19.2553 7.75256 19.5289 8.15445 19.7157 8.59816C19.9025 9.04186 19.9987 9.51843 19.9987 9.99985C19.9987 10.4813 19.9025 10.9578 19.7157 11.4015C19.5289 11.8452 19.2553 12.2471 18.911 12.5836L18.1147 13.3611L18.1285 14.4736C18.1342 14.9552 18.0435 15.433 17.8619 15.879C17.6802 16.325 17.4112 16.7302 17.0707 17.0708C16.7301 17.4113 16.3249 17.6803 15.8789 17.862C15.4329 18.0436 14.955 18.1343 14.4735 18.1286L13.361 18.1161L12.5835 18.9111C12.247 19.2554 11.8451 19.529 11.4014 19.7158C10.9577 19.9026 10.4811 19.9988 9.99973 19.9988C9.5183 19.9988 9.04174 19.9026 8.59803 19.7158C8.15433 19.529 7.75244 19.2554 7.41598 18.9111L6.63848 18.1148L5.52598 18.1286C5.04441 18.1343 4.56657 18.0436 4.12055 17.862C3.67453 17.6803 3.26934 17.4113 2.9288 17.0708C2.58826 16.7302 2.31925 16.325 2.13759 15.879C1.95592 15.433 1.86528 14.9552 1.87098 14.4736L1.88348 13.3611L1.08848 12.5836C0.744152 12.2471 0.470552 11.8452 0.283755 11.4015C0.0969582 10.9578 0.000732422 10.4813 0.000732422 9.99985C0.000732422 9.51843 0.0969582 9.04186 0.283755 8.59816C0.470552 8.15445 0.744152 7.75256 1.08848 7.4161L1.88473 6.6386L1.87098 5.5261C1.86528 5.04454 1.95592 4.56669 2.13759 4.12068C2.31925 3.67466 2.58826 3.26946 2.9288 2.92892C3.26934 2.58838 3.67453 2.31937 4.12055 2.13771C4.56657 1.95605 5.04441 1.8654 5.52598 1.8711L6.63848 1.8836L7.41598 1.0886C7.75244 0.744274 8.15433 0.470674 8.59803 0.283877C9.04174 0.0970803 9.5183 0.000854492 9.99973 0.000854492C10.4811 0.000854492 10.9577 0.0970803 11.4014 0.283877C11.8451 0.470674 12.247 0.744274 12.5835 1.0886L11.6897 1.9611C11.4697 1.73583 11.2068 1.55683 10.9166 1.43462C10.6264 1.31241 10.3146 1.24945 9.99973 1.24945C9.68482 1.24945 9.37309 1.31241 9.08286 1.43462C8.79264 1.55683 8.52977 1.73583 8.30972 1.9611L7.15973 3.1411L5.50973 3.1211C5.19495 3.11758 4.88264 3.177 4.59115 3.29588C4.29967 3.41476 4.03487 3.59069 3.81234 3.81335C3.5898 4.036 3.41401 4.30088 3.29528 4.59243C3.17655 4.88398 3.11729 5.19632 3.12098 5.5111L3.14098 7.1586L1.96098 8.30985C1.73571 8.5299 1.55671 8.79276 1.4345 9.08298C1.31228 9.37321 1.24933 9.68494 1.24933 9.99985C1.24933 10.3148 1.31228 10.6265 1.4345 10.9167C1.55671 11.2069 1.73571 11.4698 1.96098 11.6898L3.14098 12.8398L3.12098 14.4898C3.11746 14.8046 3.17688 15.1169 3.29576 15.4084C3.41464 15.6999 3.59057 15.9647 3.81323 16.1872C4.03588 16.4098 4.30076 16.5856 4.59231 16.7043C4.88386 16.823 5.1962 16.8823 5.51098 16.8786L7.15848 16.8586L8.30972 18.0386C8.52977 18.2639 8.79264 18.4429 9.08286 18.5651C9.37309 18.6873 9.68482 18.7502 9.99973 18.7502C10.3146 18.7502 10.6264 18.6873 10.9166 18.5651C11.2068 18.4429 11.4697 18.2639 11.6897 18.0386L12.8397 16.8586L14.4897 16.8786C14.8045 16.8821 15.1168 16.8227 15.4083 16.7038C15.6998 16.5849 15.9646 16.409 16.1871 16.1863C16.4097 15.9637 16.5854 15.6988 16.7042 15.4073C16.8229 15.1157 16.8822 14.8034 16.8785 14.4886L16.8585 12.8411L18.0385 11.6898C18.2637 11.4698 18.4427 11.2069 18.565 10.9167C18.6872 10.6265 18.7501 10.3148 18.7501 9.99985C18.7501 9.68494 18.6872 9.37321 18.565 9.08298C18.4427 8.79276 18.2637 8.5299 18.0385 8.30985L16.8585 7.15985L16.8785 5.50985C16.882 5.19507 16.8226 4.88276 16.7037 4.59128C16.5848 4.29979 16.4089 4.035 16.1862 3.81246C15.9636 3.58992 15.6987 3.41413 15.4071 3.2954C15.1156 3.17668 14.8033 3.11741 14.4885 3.1211L12.841 3.1411Z" fill="#212529"/>
</g>
<defs>
<clipPath id="clip0_318_3941">
<rect width="20" height="20" fill="white"/>
</clipPath>
</defs>
</svg>
